<svg width="16" height="18" viewBox="0 0 16 18" fill="none" xmlns="http://www.w3.org/2000/svg">
<path d="M8.52756 10.7202V12.3168C7.83618 12.0723 7.09624 11.9973 6.36988 12.0981C5.64352 12.1989 4.95195 12.4725 4.35324 12.8959C3.75453 13.3194 3.26616 13.8803 2.92914 14.5316C2.59213 15.1829 2.41631 15.9055 2.41645 16.6388L0.888672 16.6381C0.888435 15.7053 1.10174 14.7848 1.51223 13.9472C1.92273 13.1096 2.51953 12.377 3.25689 11.8057C3.99426 11.2344 4.85263 10.8395 5.76622 10.6512C6.67981 10.4629 7.62439 10.4863 8.52756 10.7195V10.7202ZM6.99978 9.76383C4.46749 9.76383 2.41645 7.71279 2.41645 5.1805C2.41645 2.64821 4.46749 0.597168 6.99978 0.597168C9.53207 0.597168 11.5831 2.64821 11.5831 5.1805C11.5831 7.71279 9.53207 9.76383 6.99978 9.76383ZM6.99978 8.23606C8.68798 8.23606 10.0553 6.8687 10.0553 5.1805C10.0553 3.49231 8.68798 2.12495 6.99978 2.12495C5.31159 2.12495 3.94423 3.49231 3.94423 5.1805C3.94423 6.8687 5.31159 8.23606 6.99978 8.23606ZM11.5831 12.8194V10.1458L15.4026 13.5833L11.5831 17.0208V14.3472H9.29145V12.8194H11.5831Z" fill="white"/>
</svg>