<svg width="16" height="16" viewBox="0 0 16 16" fill="none" xmlns="http://www.w3.org/2000/svg">
<path d="M8.00022 7.23608V4.94442L11.0558 7.99997L8.00022 11.0555V8.76386H4.94466V7.23608H8.00022ZM8.00022 0.361084C12.2169 0.361084 15.6391 3.78331 15.6391 7.99997C15.6391 12.2166 12.2169 15.6389 8.00022 15.6389C3.78355 15.6389 0.361328 12.2166 0.361328 7.99997C0.361328 3.78331 3.78355 0.361084 8.00022 0.361084ZM8.00022 14.1111C11.3766 14.1111 14.1113 11.3764 14.1113 7.99997C14.1113 4.62358 11.3766 1.88886 8.00022 1.88886C4.62383 1.88886 1.88911 4.62358 1.88911 7.99997C1.88911 11.3764 4.62383 14.1111 8.00022 14.1111Z" fill="white"/>
</svg>
