<svg width="208" height="40" viewBox="0 0 208 40" fill="none" xmlns="http://www.w3.org/2000/svg">
<path d="M59.6166 32.4303C56.3788 32.4303 53.9914 31.6414 52.4545 30.0634C50.9175 28.465 50.149 26.2723 50.149 23.4853V8.54614H54.6062V23.4853C54.6062 25.0632 54.9955 26.2928 55.7743 27.174C56.553 28.0347 57.8338 28.465 59.6166 28.465C61.3995 28.465 62.6803 28.0347 63.459 27.174C64.2377 26.2928 64.6271 25.0632 64.6271 23.4853V8.54614H69.0843V23.4853C69.0843 26.2723 68.3055 28.465 66.7481 30.0634C65.2111 31.6414 62.834 32.4303 59.6166 32.4303ZM76.1636 32C74.8521 32 73.8582 31.7029 73.1819 31.1086C72.5056 30.4938 72.1675 29.5306 72.1675 28.2191V8.54614H76.3173V26.9895C76.3173 27.5633 76.4197 27.9732 76.6247 28.2191C76.8501 28.4445 77.219 28.5572 77.7313 28.5572H78.8379V32H76.1636ZM85.7297 32C83.0451 32 81.7029 30.7397 81.7029 28.2191V18.0752H79.1515V14.7554H81.7029V8.54614H85.8526V14.7554H89.1724V18.0752H85.8526V26.9588C85.8526 27.4916 85.9346 27.8912 86.0985 28.1576C86.283 28.424 86.6723 28.5572 87.2666 28.5572H89.1417V32H85.7297ZM91.4721 32V14.7554H95.6219V15.3087C95.6219 15.6366 95.5911 15.903 95.5296 16.1079C95.4682 16.3129 95.3452 16.5178 95.1608 16.7227L95.5911 17.0301C96.2264 16.0874 96.9334 15.4112 97.7121 15.0013C98.4908 14.5915 99.4335 14.3866 100.54 14.3866H101.032V18.3826H100.079C98.7675 18.3826 97.7429 18.731 97.0051 19.4277C96.5338 19.8991 96.1854 20.5036 95.96 21.2413C95.7346 21.9586 95.6219 22.8808 95.6219 24.0079V32H91.4721ZM107.664 32.3381C105.984 32.3381 104.621 31.8975 103.576 31.0164C102.531 30.1147 102.008 28.8646 102.008 27.2662C102.008 25.5448 102.664 24.2333 103.976 23.3316C104.918 22.6758 106.261 22.184 108.002 21.8561L113.136 20.9032C113.136 19.8786 112.859 19.0691 112.306 18.4748C111.794 17.9215 111.025 17.6449 110.001 17.6449C109.201 17.6449 108.494 17.8806 107.88 18.3519C107.285 18.8232 106.916 19.4585 106.773 20.2577H102.654C102.941 18.3519 103.781 16.8969 105.174 15.8928C106.568 14.8886 108.187 14.3866 110.031 14.3866C111.076 14.3866 112.05 14.5402 112.951 14.8476C113.853 15.1345 114.622 15.5649 115.257 16.1387C115.892 16.692 116.353 17.3375 116.64 18.0752C116.927 18.813 117.101 19.5507 117.163 20.2884C117.245 21.0262 117.286 21.9381 117.286 23.0242V32H113.136V31.5082C113.136 30.9754 113.269 30.4323 113.535 29.879L113.074 29.6331C112.706 30.3913 112.193 30.9856 111.537 31.416C110.615 32.0307 109.324 32.3381 107.664 32.3381ZM108.679 29.0798C109.437 29.0798 110.175 28.9159 110.892 28.588C111.548 28.2806 112.07 27.8297 112.46 27.2355C112.644 26.9281 112.788 26.6309 112.89 26.344C112.992 26.0366 113.105 25.6165 113.228 25.0837C113.269 24.8378 113.331 24.6636 113.413 24.5612C113.515 24.4382 113.658 24.3665 113.843 24.346L113.751 23.8542C112.111 24.182 111.056 24.3972 110.585 24.4997L109.109 24.7763C108.002 24.9813 107.203 25.3091 106.711 25.76C106.343 26.1289 106.158 26.5797 106.158 27.1125C106.158 27.7478 106.384 28.2396 106.834 28.588C107.306 28.9159 107.92 29.0798 108.679 29.0798ZM120.446 32V8.54614H129.729C132.598 8.54614 134.668 9.18141 135.939 10.452C136.902 11.4356 137.383 12.7574 137.383 14.4173C137.383 15.8928 137.025 17.1018 136.308 18.0445C135.59 18.9667 134.668 19.4277 133.541 19.4277V19.9196C134.484 19.9196 135.334 20.1347 136.092 20.5651C136.851 20.9954 137.455 21.6102 137.906 22.4094C138.357 23.2086 138.582 24.1308 138.582 25.1759C138.582 27.3072 137.886 28.9671 136.492 30.1557C135.59 30.8729 134.555 31.3647 133.387 31.6311C132.24 31.877 131.154 32 130.129 32H120.446ZM129.453 18.2904C130.6 18.2904 131.461 18.0445 132.035 17.5527C132.629 17.0404 132.926 16.3129 132.926 15.3702C132.926 14.4685 132.65 13.7923 132.096 13.3414C131.441 12.7881 130.324 12.5115 128.746 12.5115H124.873V18.2904H129.453ZM129.576 28.0347C130.354 28.0347 131.051 27.9732 131.666 27.8502C132.301 27.7273 132.834 27.4814 133.264 27.1125C133.838 26.6412 134.125 25.8829 134.125 24.8378C134.125 23.6287 133.756 22.8398 133.018 22.4709C132.281 22.0815 131.297 21.8869 130.068 21.8869H124.873V28.0347H129.576ZM149.195 32.3381C147.473 32.3381 145.947 31.959 144.615 31.2008C143.283 30.4426 142.237 29.3769 141.479 28.0039C140.741 26.6309 140.373 25.053 140.373 23.2701C140.373 21.5487 140.741 20.0118 141.479 18.6593C142.237 17.3068 143.283 16.2616 144.615 15.5239C145.947 14.7657 147.473 14.3866 149.195 14.3866C150.916 14.3866 152.443 14.7657 153.775 15.5239C155.127 16.2821 156.172 17.3375 156.91 18.69C157.668 20.022 158.047 21.5487 158.047 23.2701C158.047 25.053 157.679 26.6309 156.941 28.0039C156.203 29.3769 155.158 30.4426 153.806 31.2008C152.473 31.959 150.937 32.3381 149.195 32.3381ZM149.195 28.7724C150.547 28.7724 151.644 28.2601 152.484 27.2355C153.324 26.2108 153.744 24.889 153.744 23.2701C153.744 21.7127 153.324 20.4421 152.484 19.4585C151.644 18.4543 150.547 17.9523 149.195 17.9523C148.313 17.9523 147.525 18.1777 146.828 18.6285C146.131 19.0794 145.588 19.7146 145.199 20.5344C144.809 21.3336 144.615 22.2455 144.615 23.2701C144.615 24.9095 145.035 26.2416 145.875 27.2662C146.736 28.2703 147.842 28.7724 149.195 28.7724ZM168.632 32.3381C166.911 32.3381 165.384 31.959 164.052 31.2008C162.72 30.4426 161.675 29.3769 160.917 28.0039C160.179 26.6309 159.81 25.053 159.81 23.2701C159.81 21.5487 160.179 20.0118 160.917 18.6593C161.675 17.3068 162.72 16.2616 164.052 15.5239C165.384 14.7657 166.911 14.3866 168.632 14.3866C170.354 14.3866 171.88 14.7657 173.212 15.5239C174.565 16.2821 175.61 17.3375 176.348 18.69C177.106 20.022 177.485 21.5487 177.485 23.2701C177.485 25.053 177.116 26.6309 176.379 28.0039C175.641 29.3769 174.596 30.4426 173.243 31.2008C171.911 31.959 170.374 32.3381 168.632 32.3381ZM168.632 28.7724C169.985 28.7724 171.081 28.2601 171.921 27.2355C172.762 26.2108 173.182 24.889 173.182 23.2701C173.182 21.7127 172.762 20.4421 171.921 19.4585C171.081 18.4543 169.985 17.9523 168.632 17.9523C167.751 17.9523 166.962 18.1777 166.265 18.6285C165.569 19.0794 165.026 19.7146 164.636 20.5344C164.247 21.3336 164.052 22.2455 164.052 23.2701C164.052 24.9095 164.472 26.2416 165.312 27.2662C166.173 28.2703 167.28 28.7724 168.632 28.7724ZM187.424 32.3381C185.293 32.3381 183.449 31.8258 181.891 30.8012C180.334 29.7765 179.422 28.2396 179.156 26.1903H183.244C183.51 27.1125 184.002 27.8297 184.719 28.3421C185.437 28.8339 186.328 29.0798 187.394 29.0798C188.295 29.0798 189.023 28.9056 189.576 28.5572C190.15 28.2089 190.437 27.717 190.437 27.0818C190.437 26.385 190.099 25.8829 189.422 25.5755C188.767 25.2682 187.742 24.9813 186.349 24.7149C185.016 24.4485 183.91 24.1616 183.029 23.8542C182.148 23.5468 181.4 23.055 180.785 22.3787C180.17 21.6819 179.863 20.7393 179.863 19.5507C179.863 17.8498 180.488 16.569 181.738 15.7083C183.008 14.8271 184.607 14.3866 186.533 14.3866C188.562 14.3866 190.242 14.8989 191.574 15.9235C192.927 16.9481 193.757 18.3929 194.064 20.2577H190.16C189.935 19.356 189.494 18.7003 188.838 18.2904C188.183 17.8601 187.404 17.6449 186.502 17.6449C185.682 17.6449 185.027 17.8088 184.535 18.1367C184.064 18.4441 183.828 18.8642 183.828 19.397C183.828 20.0323 184.146 20.4831 184.781 20.7495C185.416 21.0159 186.42 21.2823 187.793 21.5487C189.207 21.8151 190.355 22.102 191.236 22.4094C192.138 22.6963 192.906 23.1882 193.541 23.8849C194.197 24.5817 194.525 25.5448 194.525 26.7744C194.525 28.4753 193.89 29.8278 192.619 30.8319C191.369 31.8361 189.638 32.3381 187.424 32.3381ZM202.371 32C199.686 32 198.344 30.7397 198.344 28.2191V18.0752H195.793V14.7554H198.344V8.54614H202.494V14.7554H205.814V18.0752H202.494V26.9588C202.494 27.4916 202.576 27.8912 202.74 28.1576C202.924 28.424 203.314 28.5572 203.908 28.5572H205.783V32H202.371Z" fill="white"/>
<g clip-path="url(#clip0_181_195)">
<path d="M38.9727 19.4863C38.9727 8.72433 30.2483 0 19.4863 0C8.72433 0 0 8.72433 0 19.4863C0 30.2483 8.72433 38.9727 19.4863 38.9727C30.2483 38.9727 38.9727 30.2483 38.9727 19.4863Z" fill="#1355FF"/>
<path d="M15.6425 26.9886C13.6642 26.9886 11.767 26.1982 10.3682 24.7912C8.96944 23.3843 8.18359 21.4761 8.18359 19.4864C8.18359 17.4966 8.96944 15.5884 10.3682 14.1815C11.767 12.7745 13.6642 11.9841 15.6425 11.9841V26.9886Z" fill="white"/>
<path d="M23.2322 26.9886C21.7484 26.9886 20.2979 26.5486 19.0642 25.7243C17.8305 24.8999 16.8688 23.7283 16.301 22.3574C15.7332 20.9865 15.5847 19.4781 15.8742 18.0228C16.1636 16.5675 16.8781 15.2307 17.9273 14.1815C18.9765 13.1323 20.3133 12.4178 21.7686 12.1283C23.2239 11.8388 24.7323 11.9874 26.1032 12.5552C27.4741 13.123 28.6457 14.0847 29.4701 15.3184C30.2944 16.5521 30.7344 18.0026 30.7344 19.4864H23.2322V26.9886Z" fill="white"/>
</g>
<defs>
<clipPath id="clip0_181_195">
<rect width="38.9727" height="38.9727" fill="white"/>
</clipPath>
</defs>
</svg>
