<svg width="148" height="40" viewBox="0 0 148 40" fill="none" xmlns="http://www.w3.org/2000/svg">
<path d="M26.4191 18.3713C26.0401 18.7526 25.7499 19.2128 25.569 19.719C25.3882 20.2253 25.3213 20.7652 25.373 21.3003L25.355 21.2823C25.4082 21.9122 25.3232 22.546 25.1061 23.1397C24.889 23.7333 24.5451 24.2724 24.0982 24.7194C23.6512 25.1663 23.112 25.5104 22.5183 25.7274C21.9247 25.9445 21.2908 26.0295 20.661 25.9763L20.6791 25.9943C19.9257 25.9242 19.1689 26.0881 18.512 26.4638C17.8552 26.8395 17.3302 27.4086 17.0087 28.0936C16.6872 28.7786 16.5847 29.546 16.7153 30.2914C16.846 31.0367 17.2033 31.7236 17.7386 32.2584C18.2739 32.7932 18.9611 33.1499 19.7065 33.2798C20.452 33.4097 21.2193 33.3066 21.904 32.9845C22.5887 32.6623 23.1573 32.1369 23.5324 31.4797C23.9075 30.8225 24.0708 30.0657 24 29.3123L24.019 29.3303C23.9658 28.7005 24.0507 28.0666 24.2678 27.4729C24.4849 26.8793 24.829 26.3402 25.2759 25.8932C25.7229 25.4463 26.262 25.1022 26.8556 24.8852C27.4494 24.6681 28.0831 24.5831 28.713 24.6363L28.694 24.6183C29.3095 24.6736 29.929 24.5727 30.4951 24.3249C31.0611 24.0771 31.5554 23.6904 31.9322 23.2007C32.309 22.711 32.5562 22.134 32.6507 21.5234C32.7451 20.9127 32.684 20.2881 32.4727 19.7073C32.2615 19.1266 31.9071 18.6086 31.4424 18.2013C30.9777 17.794 30.4178 17.5106 29.8144 17.3774C29.2109 17.2442 28.5837 17.2654 27.9907 17.4391C27.3976 17.6129 26.8582 17.9335 26.4221 18.3713H26.4191Z" fill="#07090D"/>
<path d="M19.0422 23.6362L19.0232 23.6182C19.5585 23.6721 20.0991 23.6064 20.606 23.4258C21.1128 23.2452 21.5732 22.9543 21.9538 22.574C22.3343 22.1937 22.6257 21.7335 22.8066 21.2268C22.9876 20.7201 23.0537 20.1796 23.0002 19.6442L23.0192 19.6622C22.966 19.0323 23.051 18.3985 23.268 17.8048C23.4851 17.2112 23.8292 16.6721 24.2761 16.2251C24.7231 15.7782 25.2622 15.4341 25.8558 15.2171C26.4495 15 27.0833 14.9151 27.7132 14.9682L27.6942 14.9502C28.4477 15.021 29.2046 14.8576 29.8618 14.4823C30.5191 14.1071 31.0445 13.5382 31.3665 12.8533C31.6885 12.1685 31.7914 11.4009 31.6612 10.6554C31.531 9.90993 31.174 9.22275 30.6388 8.68761C30.1037 8.15248 29.4165 7.79544 28.671 7.66522C27.9255 7.53499 27.158 7.6379 26.4731 7.95992C25.7882 8.28193 25.2194 8.80738 24.8441 9.46459C24.4688 10.1218 24.3054 10.8788 24.3762 11.6322L24.3582 11.6132C24.4115 12.2431 24.3267 12.8771 24.1097 13.4708C23.8927 14.0645 23.5486 14.6037 23.1017 15.0507C22.6547 15.4976 22.1155 15.8417 21.5218 16.0587C20.928 16.2757 20.2941 16.3605 19.6642 16.3072L19.6822 16.3262C19.1469 16.2723 18.6062 16.338 18.0994 16.5186C17.5926 16.6991 17.1322 16.9901 16.7516 17.3704C16.371 17.7507 16.0797 18.2109 15.8987 18.7176C15.7178 19.2243 15.6517 19.7648 15.7052 20.3002L15.6872 20.2822C15.7402 20.912 15.6551 21.5458 15.438 22.1394C15.2208 22.7329 14.8768 23.272 14.4299 23.7189C13.9829 24.1658 13.4439 24.5098 12.8503 24.727C12.2568 24.9441 11.623 25.0292 10.9932 24.9762L11.0112 24.9942C10.2577 24.9234 9.5007 25.0868 8.84349 25.4621C8.18629 25.8374 7.66084 26.4062 7.33883 27.0911C7.01681 27.776 6.91389 28.5435 7.04412 29.289C7.17435 30.0345 7.53139 30.7217 8.06652 31.2568C8.60166 31.792 9.28884 32.149 10.0344 32.2792C10.7799 32.4094 11.5474 32.3065 12.2323 31.9845C12.9171 31.6625 13.486 31.1371 13.8613 30.4799C14.2366 29.8226 14.4 29.0657 14.3292 28.3122L14.3482 28.3302C14.295 27.7003 14.38 27.0665 14.5971 26.4728C14.8141 25.8792 15.1582 25.3401 15.6051 24.8931C16.0521 24.4462 16.5912 24.1021 17.1848 23.8851C17.7785 23.668 18.4123 23.583 19.0422 23.6362Z" fill="#07090D"/>
<path d="M12.3402 21.6289C12.7192 21.2477 13.0094 20.7875 13.1901 20.2812C13.3707 19.7749 13.4373 19.2349 13.3852 18.6999L13.4042 18.7179C13.351 18.0879 13.436 17.4538 13.6532 16.86C13.8704 16.2662 14.2146 15.727 14.6618 15.28C15.109 14.8331 15.6483 14.4891 16.2422 14.2721C16.8361 14.0552 17.4702 13.9705 18.1002 14.0239L18.0812 14.0059C18.8344 14.0765 19.5911 13.913 20.248 13.5378C20.9049 13.1625 21.43 12.5938 21.7519 11.9092C22.0737 11.2245 22.1765 10.4573 22.0463 9.71203C21.9161 8.9668 21.5591 8.27988 21.0242 7.74494C20.4893 7.21 19.8023 6.85308 19.0571 6.72286C18.3119 6.59263 17.5446 6.69545 16.86 7.01727C16.1753 7.33909 15.6066 7.86426 15.2314 8.52116C14.8561 9.17806 14.6926 9.93472 14.7632 10.6879L14.7452 10.6699C14.7984 11.2998 14.7134 11.9337 14.4963 12.5273C14.2792 13.1209 13.9352 13.66 13.4883 14.107C13.0413 14.554 12.5022 14.898 11.9086 15.115C11.3149 15.3321 10.6811 15.4171 10.0512 15.3639L10.0692 15.3819C9.45378 15.3267 8.83437 15.4278 8.26839 15.6757C7.70241 15.9236 7.20816 16.3104 6.83145 16.8002C6.45474 17.2899 6.20776 17.8669 6.11338 18.4775C6.01901 19.0882 6.0803 19.7128 6.29157 20.2934C6.50284 20.8741 6.85727 21.392 7.322 21.7992C7.78673 22.2065 8.34673 22.4898 8.95011 22.623C9.55348 22.7561 10.1807 22.7348 10.7737 22.5611C11.3666 22.3873 11.9061 22.0667 12.3422 21.6289H12.3402Z" fill="#07090D"/>
<path d="M43.3164 11.6553H46.2864V26.1083H43.3164V11.6553Z" fill="#07090D"/>
<path d="M47.9689 21.1591C47.9648 20.1205 48.269 19.1039 48.843 18.2383C49.417 17.3727 50.235 16.6969 51.1934 16.2966C52.1518 15.8962 53.2074 15.7893 54.2266 15.9894C55.2458 16.1895 56.1827 16.6875 56.9186 17.4205C57.6545 18.1534 58.1563 19.0883 58.3605 20.1067C58.5647 21.1251 58.462 22.1812 58.0655 23.1412C57.669 24.1011 56.9965 24.9219 56.1332 25.4993C55.2698 26.0768 54.2546 26.3851 53.2159 26.3851C52.5265 26.393 51.8424 26.2633 51.2036 26.0037C50.5648 25.7441 49.9842 25.3598 49.4957 24.8733C49.0071 24.3867 48.6205 23.8076 48.3584 23.1699C48.0962 22.5322 47.9638 21.8486 47.9689 21.1591ZM55.4929 21.1591C55.4805 20.7114 55.3364 20.2773 55.0787 19.911C54.8209 19.5448 54.4609 19.2626 54.0437 19.0999C53.6264 18.9371 53.1705 18.9009 52.7328 18.9959C52.2951 19.0909 51.8951 19.3127 51.5828 19.6338C51.2706 19.9548 51.0598 20.3608 50.9771 20.801C50.8943 21.2411 50.943 21.6959 51.1173 22.1085C51.2916 22.5211 51.5836 22.8731 51.9568 23.1206C52.3301 23.3681 52.7681 23.5001 53.2159 23.5001C53.5226 23.5083 53.8277 23.4528 54.112 23.3372C54.3962 23.2216 54.6534 23.0484 54.8673 22.8285C55.0812 22.6085 55.2473 22.3466 55.3549 22.0593C55.4626 21.772 55.5096 21.4655 55.4929 21.1591Z" fill="#07090D"/>
<path d="M70.2999 16.2088V25.6088C70.2999 28.9348 67.7059 30.3408 65.0729 30.3408C64.1459 30.4102 63.2176 30.2229 62.3899 29.7996C61.5623 29.3762 60.8672 28.7331 60.3809 27.9408L62.9149 26.4758C63.1193 26.8888 63.445 27.2295 63.8483 27.4524C64.2517 27.6752 64.7135 27.7696 65.1719 27.7228C65.4649 27.7634 65.7633 27.7376 66.045 27.6473C66.3266 27.557 66.5844 27.4045 66.7992 27.2012C67.014 26.9978 67.1803 26.7488 67.2859 26.4724C67.3914 26.1961 67.4334 25.8996 67.4089 25.6048V24.6998C67.0611 25.1253 66.6185 25.4634 66.1164 25.6869C65.6143 25.9104 65.0669 26.0131 64.5179 25.9868C63.2117 25.9456 61.9728 25.3978 61.0634 24.4592C60.154 23.5207 59.6455 22.2651 59.6455 20.9583C59.6455 19.6515 60.154 18.3959 61.0634 17.4574C61.9728 16.5188 63.2117 15.971 64.5179 15.9298C65.0669 15.9035 65.6143 16.0062 66.1164 16.2297C66.6185 16.4532 67.0611 16.7913 67.4089 17.2168V16.2068L70.2999 16.2088ZM67.4099 20.9598C67.4299 20.4812 67.3061 20.0075 67.0546 19.5998C66.8031 19.192 66.4353 18.8689 65.9986 18.672C65.5619 18.475 65.0763 18.4133 64.6042 18.4947C64.1321 18.5761 63.6952 18.7969 63.3496 19.1288C63.0041 19.4606 62.7658 19.8882 62.6653 20.3566C62.5649 20.825 62.6069 21.3128 62.7861 21.7571C62.9652 22.2014 63.2732 22.582 63.6704 22.8498C64.0676 23.1176 64.5359 23.2604 65.0149 23.2598C65.327 23.2816 65.6401 23.2378 65.9342 23.1312C66.2283 23.0246 66.4968 22.8575 66.7224 22.6409C66.948 22.4242 67.1258 22.1627 67.2442 21.8731C67.3626 21.5836 67.4191 21.2725 67.4099 20.9598Z" fill="#07090D"/>
<path d="M71.9826 21.1591C71.9785 20.1205 72.2826 19.1039 72.8567 18.2383C73.4307 17.3727 74.2487 16.6969 75.2071 16.2966C76.1655 15.8962 77.2211 15.7893 78.2403 15.9894C79.2595 16.1895 80.1964 16.6875 80.9323 17.4205C81.6682 18.1534 82.17 19.0883 82.3742 20.1067C82.5784 21.1251 82.4757 22.1812 82.0792 23.1412C81.6827 24.1011 81.0102 24.9219 80.1469 25.4993C79.2835 26.0768 78.2683 26.3851 77.2296 26.3851C76.5402 26.393 75.856 26.2633 75.2173 26.0037C74.5785 25.7441 73.9979 25.3598 73.5094 24.8733C73.0208 24.3867 72.6342 23.8076 72.3721 23.1699C72.1099 22.5322 71.9775 21.8486 71.9826 21.1591ZM79.5066 21.1591C79.4942 20.7114 79.3501 20.2773 79.0924 19.911C78.8346 19.5448 78.4746 19.2626 78.0574 19.0999C77.6401 18.9371 77.1841 18.9009 76.7465 18.9959C76.3088 19.0909 75.9088 19.3127 75.5965 19.6338C75.2843 19.9548 75.0735 20.3608 74.9907 20.801C74.9079 21.2411 74.9567 21.6959 75.131 22.1085C75.3053 22.5211 75.5973 22.8731 75.9705 23.1206C76.3438 23.3681 76.7817 23.5001 77.2296 23.5001C77.5363 23.5083 77.8414 23.4528 78.1256 23.3372C78.4099 23.2216 78.6671 23.0484 78.881 22.8285C79.0949 22.6085 79.261 22.3466 79.3686 22.0593C79.4763 21.772 79.5233 21.4655 79.5066 21.1591Z" fill="#07090D"/>
<path d="M83.8613 13.5559C83.8613 13.2035 83.9658 12.8589 84.1616 12.5659C84.3574 12.2729 84.6358 12.0444 84.9614 11.9096C85.287 11.7747 85.6453 11.7394 85.991 11.8082C86.3366 11.8769 86.6542 12.0466 86.9034 12.2959C87.1526 12.5451 87.3223 12.8626 87.3911 13.2083C87.4598 13.5539 87.4245 13.9122 87.2897 14.2379C87.1548 14.5635 86.9264 14.8418 86.6333 15.0376C86.3403 15.2334 85.9958 15.3379 85.6433 15.3379C85.1722 15.3332 84.7216 15.144 84.3884 14.8108C84.0553 14.4776 83.866 14.0271 83.8613 13.5559ZM84.1613 16.2089H87.1323V26.1089H84.1573L84.1613 16.2089Z" fill="#07090D"/>
<path d="M99.9557 21.1593C99.99 21.8136 99.8947 22.4682 99.6751 23.0855C99.4556 23.7028 99.1162 24.2706 98.6764 24.7563C98.2367 25.2419 97.7052 25.6359 97.1127 25.9155C96.5201 26.195 95.8782 26.3547 95.2237 26.3853C94.6733 26.4153 94.1232 26.3225 93.6131 26.1136C93.103 25.9046 92.6459 25.5848 92.2747 25.1773V30.0683H89.3047V16.2093H92.2747V17.1393C92.646 16.7321 93.1033 16.4125 93.6133 16.2038C94.1234 15.995 94.6734 15.9023 95.2237 15.9323C95.8783 15.9628 96.5204 16.1224 97.1131 16.402C97.7058 16.6816 98.2373 17.0756 98.6771 17.5614C99.1169 18.0472 99.4563 18.6152 99.6757 19.2327C99.8951 19.8501 99.9903 20.5049 99.9557 21.1593ZM96.9857 21.1593C96.9741 20.696 96.8261 20.2464 96.5602 19.8667C96.2943 19.4871 95.9224 19.1943 95.491 19.0251C95.0595 18.8558 94.5877 18.8175 94.1346 18.9151C93.6815 19.0126 93.2673 19.2416 92.9437 19.5734C92.6201 19.9053 92.4016 20.3251 92.3155 20.7806C92.2294 21.236 92.2795 21.7066 92.4596 22.1337C92.6396 22.5608 92.9417 22.9252 93.3279 23.1815C93.7141 23.4377 94.1672 23.5744 94.6307 23.5743C94.9489 23.5885 95.2665 23.5352 95.5627 23.418C95.8588 23.3009 96.1269 23.1224 96.3492 22.8944C96.5716 22.6663 96.7432 22.3939 96.8529 22.0949C96.9626 21.7959 97.0079 21.477 96.9857 21.1593Z" fill="#07090D"/>
<path d="M109.121 23.1379C109.121 25.4149 107.142 26.3849 105.004 26.3849C104.14 26.4631 103.273 26.2805 102.514 25.8604C101.755 25.4404 101.14 24.8024 100.747 24.0289L103.32 22.5639C103.424 22.9214 103.648 23.2325 103.953 23.445C104.259 23.6576 104.629 23.7589 105 23.7319C105.712 23.7319 106.069 23.5139 106.069 23.1189C106.069 22.0289 101.198 22.6039 101.198 19.1789C101.198 17.0199 103.02 15.9319 105.079 15.9319C105.853 15.9074 106.619 16.091 107.298 16.4635C107.977 16.8361 108.544 17.3839 108.939 18.0499L106.405 19.4159C106.294 19.1566 106.109 18.9357 105.873 18.7808C105.637 18.6259 105.361 18.5439 105.079 18.5449C104.564 18.5449 104.247 18.7449 104.247 19.0989C104.251 20.2279 109.121 19.4749 109.121 23.1379Z" fill="#07090D"/>
<path d="M119.971 16.209V26.109H117.001V25.178C116.658 25.5888 116.223 25.9125 115.731 26.1225C115.239 26.3325 114.705 26.4228 114.171 26.386C112.171 26.386 110.471 24.961 110.471 22.286V16.209H113.441V21.851C113.416 22.0868 113.443 22.3252 113.52 22.5495C113.596 22.7739 113.721 22.9789 113.885 23.1502C114.049 23.3215 114.248 23.455 114.469 23.5415C114.689 23.628 114.926 23.6654 115.163 23.651C116.252 23.651 117.004 23.018 117.004 21.612V16.212L119.971 16.209Z" fill="#07090D"/>
<path d="M136.999 20.0297V26.1077H134.029V20.2867C134.029 19.2967 133.554 18.6637 132.604 18.6637C131.614 18.6637 131.059 19.3567 131.059 20.5247V26.1077H128.09V20.2867C128.09 19.2967 127.615 18.6637 126.664 18.6637C125.674 18.6637 125.12 19.3567 125.12 20.5247V26.1077H122.15V16.2077H125.12V17.1177C125.428 16.714 125.832 16.3938 126.295 16.1865C126.759 15.9791 127.267 15.8912 127.773 15.9307C128.281 15.9058 128.787 16.0131 129.242 16.242C129.696 16.4708 130.083 16.8136 130.366 17.2367C130.695 16.794 131.131 16.442 131.633 16.2136C132.135 15.9852 132.687 15.8879 133.237 15.9307C135.51 15.9317 136.999 17.5547 136.999 20.0297Z" fill="#07090D"/>
<path d="M139.513 16.1482C140.73 16.1482 141.717 15.1614 141.717 13.9442C141.717 12.727 140.73 11.7402 139.513 11.7402C138.296 11.7402 137.309 12.727 137.309 13.9442C137.309 15.1614 138.296 16.1482 139.513 16.1482Z" fill="#07090D"/>
</svg>
