<svg width="148" height="40" viewBox="0 0 148 40" fill="none" xmlns="http://www.w3.org/2000/svg">
<path d="M46.5645 26.4733H55.7968V23.6635H49.8458V13.0801H46.5645V26.4733Z" fill="#ACB4C3"/>
<path d="M61.2672 24.5998C59.9509 24.5998 59.265 23.4385 59.265 21.6964C59.265 19.9544 59.9509 18.7743 61.2672 18.7743C62.5834 18.7743 63.2879 19.9544 63.2879 21.6964C63.2879 23.4385 62.5834 24.5998 61.2672 24.5998ZM61.2857 26.7727C64.3446 26.7727 66.3468 24.5811 66.3468 21.6964C66.3468 18.8117 64.3446 16.6201 61.2857 16.6201C58.2453 16.6201 56.2061 18.8117 56.2061 21.6964C56.2061 24.5811 58.2453 26.7727 61.2857 26.7727Z" fill="#ACB4C3"/>
<path d="M71.6414 29.7887C73.0503 29.7887 74.2925 29.4702 75.1267 28.721C75.8868 28.0279 76.3874 26.9789 76.3874 25.5366V16.8825H73.4953V17.9128H73.4582C72.902 17.1073 72.0493 16.6016 70.7886 16.6016C68.4342 16.6016 66.8027 18.5871 66.8027 21.3969C66.8027 24.3378 68.7864 25.9487 70.9184 25.9487C72.0678 25.9487 72.7908 25.4804 73.347 24.8435H73.4211V25.7988C73.4211 26.9602 72.8835 27.6345 71.6043 27.6345C70.6032 27.6345 70.1027 27.2037 69.9358 26.698H67.0067C67.3033 28.7022 69.0274 29.7887 71.6414 29.7887ZM71.6229 23.6821C70.492 23.6821 69.7504 22.7456 69.7504 21.3032C69.7504 19.8421 70.492 18.9056 71.6229 18.9056C72.8835 18.9056 73.5509 19.992 73.5509 21.2845C73.5509 22.6332 72.9391 23.6821 71.6229 23.6821Z" fill="#ACB4C3"/>
<path d="M82.3346 24.5998C81.0183 24.5998 80.3324 23.4385 80.3324 21.6964C80.3324 19.9544 81.0183 18.7743 82.3346 18.7743C83.6508 18.7743 84.3553 19.9544 84.3553 21.6964C84.3553 23.4385 83.6508 24.5998 82.3346 24.5998ZM82.3531 26.7727C85.412 26.7727 87.4145 24.5811 87.4145 21.6964C87.4145 18.8117 85.412 16.6201 82.3531 16.6201C79.3127 16.6201 77.2734 18.8117 77.2734 21.6964C77.2734 24.5811 79.3127 26.7727 82.3531 26.7727Z" fill="#ACB4C3"/>
<path d="M88.2969 26.4733H91.3187V16.8826H88.2969V26.4733ZM88.2969 15.5527H91.3187V13.0801H88.2969V15.5527Z" fill="#ACB4C3"/>
<path d="M92.6289 29.6388H95.6508V25.4804H95.6878C96.2811 26.2859 97.1524 26.7729 98.376 26.7729C100.86 26.7729 102.51 24.7873 102.51 21.6779C102.51 18.7932 100.971 16.6016 98.4501 16.6016C97.1524 16.6016 96.2255 17.1822 95.5766 18.0439H95.521V16.8825H92.6289V29.6388ZM97.5973 24.4127C96.2996 24.4127 95.5581 23.345 95.5581 21.7902C95.5581 20.2355 96.2255 19.0554 97.5417 19.0554C98.8394 19.0554 99.4512 20.1419 99.4512 21.7902C99.4512 23.4199 98.7468 24.4127 97.5973 24.4127Z" fill="#ACB4C3"/>
<path d="M107.431 26.7729C109.915 26.7729 111.75 25.6864 111.75 23.5885C111.75 21.1346 109.785 20.7038 108.117 20.4228C106.912 20.1981 105.836 20.1044 105.836 19.4301C105.836 18.8306 106.411 18.5497 107.153 18.5497C107.987 18.5497 108.562 18.8119 108.673 19.6736H111.454C111.305 17.7817 109.859 16.6016 107.171 16.6016C104.928 16.6016 103.074 17.6505 103.074 19.6736C103.074 21.9214 104.835 22.3709 106.485 22.6519C107.746 22.8767 108.895 22.9703 108.895 23.832C108.895 24.4501 108.321 24.7873 107.412 24.7873C106.411 24.7873 105.781 24.319 105.669 23.3637H102.814C102.907 25.4804 104.65 26.7729 107.431 26.7729Z" fill="#ACB4C3"/>
<path d="M115.855 26.7539C117.171 26.7539 118.005 26.2294 118.691 25.2929H118.747V26.473H121.639V16.8823H118.617V22.2396C118.617 23.3822 117.987 24.169 116.948 24.169C115.984 24.169 115.521 23.5883 115.521 22.5393V16.8823H112.518V23.1762C112.518 25.3116 113.667 26.7539 115.855 26.7539Z" fill="#ACB4C3"/>
<path d="M122.953 26.4732H125.975V21.0972C125.975 19.9545 126.531 19.1491 127.477 19.1491C128.385 19.1491 128.811 19.7485 128.811 20.7787V26.4732H131.833V21.0972C131.833 19.9545 132.371 19.1491 133.335 19.1491C134.243 19.1491 134.67 19.7485 134.67 20.7787V26.4732H137.692V20.2355C137.692 18.0814 136.616 16.6016 134.466 16.6016C133.242 16.6016 132.223 17.1261 131.481 18.2874H131.444C130.962 17.2572 130.016 16.6016 128.774 16.6016C127.402 16.6016 126.494 17.2572 125.901 18.25H125.845V16.8825H122.953V26.4732Z" fill="#ACB4C3"/>
<path fill-rule="evenodd" clip-rule="evenodd" d="M15.6847 7.03709C14.5796 7.81786 13.5803 8.74098 12.7128 9.78014C16.2578 9.4476 20.7616 9.9906 25.9905 12.6323C31.5743 15.4531 36.0706 15.5485 39.1998 14.9386C38.9159 14.07 38.5584 13.2352 38.135 12.4416C34.5529 12.8233 29.9606 12.318 24.6088 9.61435C21.2103 7.89743 18.2145 7.19018 15.6847 7.03709ZM36.0425 9.43224C33.2137 6.23876 29.1028 4.229 24.5272 4.229C23.1835 4.229 21.8798 4.40236 20.6369 4.72811C22.3202 5.19219 24.1084 5.87114 25.9905 6.82199C29.9089 8.80151 33.2918 9.43888 36.0425 9.43224ZM39.8688 17.9875C36.0885 18.7418 30.8681 18.5868 24.6088 15.4246C18.757 12.4683 14.0994 12.5055 10.9582 13.2108C10.7961 13.2472 10.6377 13.2855 10.4832 13.3253C10.072 14.229 9.7437 15.1793 9.50815 16.1662C9.75973 16.0983 10.0197 16.0337 10.2879 15.9735C14.0988 15.1178 19.4831 15.155 25.9905 18.4425C31.8424 21.3989 36.4999 21.3616 39.6412 20.6563C39.7488 20.6322 39.8549 20.6072 39.9592 20.5815C39.9706 20.3354 39.9763 20.0877 39.9763 19.8387C39.9763 19.2124 39.9398 18.5946 39.8688 17.9875ZM39.4547 23.8757C35.711 24.537 30.6427 24.2831 24.6088 21.2349C18.757 18.2785 14.0994 18.3158 10.9582 19.0211C10.2609 19.1776 9.6337 19.3683 9.08039 19.5695C9.07888 19.6591 9.07812 19.7488 9.07812 19.8387C9.07812 28.4598 15.9949 35.4485 24.5272 35.4485C31.6779 35.4485 37.6939 30.5399 39.4547 23.8757Z" fill="#ACB4C3"/>
</svg>
