<svg width="148" height="40" viewBox="0 0 148 40" fill="none" xmlns="http://www.w3.org/2000/svg">
<path d="M46.7188 26.5973H56.1096V23.7875H50.0565V13.2041H46.7188V26.5973Z" fill="#ACB4C3"/>
<path d="M61.6734 24.7238C60.3345 24.7238 59.6368 23.5625 59.6368 21.8204C59.6368 20.0784 60.3345 18.8983 61.6734 18.8983C63.0122 18.8983 63.7288 20.0784 63.7288 21.8204C63.7288 23.5625 63.0122 24.7238 61.6734 24.7238ZM61.6922 26.8967C64.8037 26.8967 66.8403 24.7051 66.8403 21.8204C66.8403 18.9358 64.8037 16.7441 61.6922 16.7441C58.5997 16.7441 56.5254 18.9358 56.5254 21.8204C56.5254 24.7051 58.5997 26.8967 61.6922 26.8967Z" fill="#ACB4C3"/>
<path d="M72.2244 29.9127C73.6576 29.9127 74.921 29.5943 75.7696 28.845C76.5427 28.1519 77.0519 27.103 77.0519 25.6606V17.0066H74.1102V18.0368H74.0724C73.5067 17.2313 72.6393 16.7256 71.357 16.7256C68.9622 16.7256 67.3027 18.7111 67.3027 21.5209C67.3027 24.4618 69.3205 26.0727 71.489 26.0727C72.6582 26.0727 73.3936 25.6044 73.9593 24.9675H74.0347V25.9229C74.0347 27.0842 73.4879 27.7586 72.1867 27.7586C71.1684 27.7586 70.6593 27.3277 70.4896 26.822H67.5102C67.8119 28.8263 69.5656 29.9127 72.2244 29.9127ZM72.2056 23.8062C71.0553 23.8062 70.301 22.8696 70.301 21.4272C70.301 19.9662 71.0553 19.0296 72.2056 19.0296C73.4879 19.0296 74.1667 20.116 74.1667 21.4085C74.1667 22.7572 73.5444 23.8062 72.2056 23.8062Z" fill="#ACB4C3"/>
<path d="M83.1011 24.7238C81.7623 24.7238 81.0646 23.5625 81.0646 21.8204C81.0646 20.0784 81.7623 18.8983 83.1011 18.8983C84.44 18.8983 85.1566 20.0784 85.1566 21.8204C85.1566 23.5625 84.44 24.7238 83.1011 24.7238ZM83.12 26.8967C86.2314 26.8967 88.2676 24.7051 88.2676 21.8204C88.2676 18.9358 86.2314 16.7441 83.12 16.7441C80.0274 16.7441 77.9531 18.9358 77.9531 21.8204C77.9531 24.7051 80.0274 26.8967 83.12 26.8967Z" fill="#ACB4C3"/>
<path d="M89.166 26.5968H92.2397V17.0061H89.166V26.5968ZM89.166 15.6762H92.2397V13.2036H89.166V15.6762Z" fill="#ACB4C3"/>
<path d="M93.5723 29.7629H96.646V25.6044H96.6837C97.2871 26.4099 98.1734 26.8969 99.418 26.8969C101.945 26.8969 103.623 24.9113 103.623 21.8019C103.623 18.9172 102.058 16.7256 99.4934 16.7256C98.1734 16.7256 97.2305 17.3063 96.5705 18.1679H96.514V17.0066H93.5723V29.7629ZM98.626 24.5367C97.306 24.5367 96.5517 23.469 96.5517 21.9143C96.5517 20.3595 97.2306 19.1794 98.5694 19.1794C99.8894 19.1794 100.512 20.2659 100.512 21.9143C100.512 23.5439 99.7951 24.5367 98.626 24.5367Z" fill="#ACB4C3"/>
<path d="M108.628 26.8969C111.155 26.8969 113.022 25.8105 113.022 23.7125C113.022 21.2587 111.023 20.8278 109.326 20.5469C108.1 20.3221 107.006 20.2284 107.006 19.5541C107.006 18.9547 107.591 18.6737 108.345 18.6737C109.194 18.6737 109.778 18.9359 109.891 19.7976H112.72C112.569 17.9057 111.098 16.7256 108.364 16.7256C106.082 16.7256 104.197 17.7746 104.197 19.7976C104.197 22.0454 105.988 22.495 107.666 22.7759C108.949 23.0007 110.118 23.0944 110.118 23.956C110.118 24.5742 109.533 24.9113 108.609 24.9113C107.591 24.9113 106.95 24.443 106.837 23.4877H103.933C104.027 25.6044 105.799 26.8969 108.628 26.8969Z" fill="#ACB4C3"/>
<path d="M117.197 26.878C118.536 26.878 119.384 26.3535 120.082 25.4169H120.139V26.597H123.08V17.0063H120.007V22.3636C120.007 23.5063 119.366 24.293 118.31 24.293C117.329 24.293 116.858 23.7123 116.858 22.6633V17.0063H113.803V23.3002C113.803 25.4356 114.972 26.878 117.197 26.878Z" fill="#ACB4C3"/>
<path d="M124.418 26.5972H127.492V21.2212C127.492 20.0786 128.057 19.2731 129.019 19.2731C129.943 19.2731 130.377 19.8725 130.377 20.9028V26.5972H133.451V21.2212C133.451 20.0786 133.997 19.2731 134.978 19.2731C135.902 19.2731 136.336 19.8725 136.336 20.9028V26.5972H139.409V20.3595C139.409 18.2054 138.316 16.7256 136.128 16.7256C134.884 16.7256 133.847 17.2501 133.092 18.4114H133.055C132.564 17.3812 131.603 16.7256 130.339 16.7256C128.944 16.7256 128.02 17.3812 127.416 18.374H127.36V17.0066H124.418V26.5972Z" fill="#ACB4C3"/>
<path d="M27.9655 5.54274L24.8753 4.72021L22.2712 14.3745L19.9201 5.65855L16.8298 6.48107L19.37 15.898L13.0429 9.61308L10.7807 11.8602L17.7207 18.7541L9.07803 16.4537L8.25 19.5234L17.6932 22.0369C17.5851 21.5737 17.5279 21.091 17.5279 20.5951C17.5279 17.0848 20.3926 14.2391 23.9264 14.2391C27.4603 14.2391 30.325 17.0848 30.325 20.5951C30.325 21.0878 30.2685 21.5675 30.1617 22.028L38.7438 24.3122L39.5718 21.2426L30.0911 18.7191L38.7343 16.4185L37.9062 13.3489L28.4259 15.8722L34.7529 9.58727L32.4907 7.3401L25.647 14.1383L27.9655 5.54274Z" fill="#ACB4C3"/>
<path d="M30.1523 22.064C29.8874 23.1766 29.328 24.1762 28.5605 24.9771L34.7779 31.1531L37.0401 28.906L30.1523 22.064Z" fill="#ACB4C3"/>
<path d="M28.4978 25.0415C27.7211 25.8296 26.7395 26.4177 25.6387 26.7207L27.9011 35.1078L30.9913 34.2853L28.4978 25.0415Z" fill="#ACB4C3"/>
<path d="M25.5238 26.7515C25.0131 26.882 24.4778 26.9513 23.9262 26.9513C23.3351 26.9513 22.7628 26.8717 22.2195 26.7227L19.9551 35.1174L23.0453 35.9399L25.5238 26.7515Z" fill="#ACB4C3"/>
<path d="M22.11 26.6918C21.0261 26.3737 20.0619 25.7781 19.301 24.9878L13.0684 31.179L15.3306 33.4262L22.11 26.6918Z" fill="#ACB4C3"/>
<path d="M19.2489 24.9327C18.5011 24.1374 17.9563 23.1512 17.6971 22.0557L9.08691 24.3474L9.91494 27.4171L19.2489 24.9327Z" fill="#ACB4C3"/>
</svg>
