<svg width="14" height="17" viewBox="0 0 14 17" fill="none" xmlns="http://www.w3.org/2000/svg">
<path d="M2.13861 4.9024L7 0.0410156L11.8614 4.9024C12.8229 5.86389 13.4776 7.0889 13.7429 8.42252C14.0082 9.75613 13.872 11.1385 13.3517 12.3947C12.8313 13.6509 11.9501 14.7247 10.8195 15.4801C9.68895 16.2355 8.35975 16.6387 7 16.6387C5.64026 16.6387 4.31105 16.2355 3.18047 15.4801C2.04988 14.7247 1.16869 13.6509 0.648339 12.3947C0.127984 11.1385 -0.00816844 9.75613 0.257098 8.42252C0.522365 7.0889 1.17714 5.86389 2.13861 4.9024ZM7.76389 8.23601V4.79852L4.32639 9.76379H6.23611V13.2013L9.67361 8.23601H7.76389Z" fill="#1355FF"/>
</svg>
