<svg width="18" height="15" viewBox="0 0 18 15" fill="none" xmlns="http://www.w3.org/2000/svg">
<path d="M11.2916 0.360845C11.8281 0.360781 12.3551 0.501959 12.8197 0.770185C13.2843 1.03841 13.6701 1.42423 13.9383 1.88885C14.2065 2.35346 14.3476 2.8805 14.3475 3.41697C14.3474 3.95344 14.2061 4.48042 13.9377 4.94494L17.4027 4.94418V6.47196H15.8749V14.1108C15.8749 14.3134 15.7945 14.5077 15.6512 14.651C15.5079 14.7943 15.3137 14.8747 15.1111 14.8747H2.88883C2.68624 14.8747 2.49194 14.7943 2.34868 14.651C2.20543 14.5077 2.12495 14.3134 2.12495 14.1108V6.47196H0.597168V4.94418L4.06217 4.94494C3.68317 4.28868 3.56158 3.51498 3.721 2.7741C3.88042 2.03322 4.30947 1.37801 4.92485 0.935711C5.54023 0.493408 6.29802 0.29557 7.05107 0.380613C7.80413 0.465656 8.49871 0.82751 8.99994 1.39591C9.28609 1.07002 9.6386 0.809074 10.0338 0.630557C10.4291 0.452039 10.8579 0.36008 11.2916 0.360845ZM9.76383 6.47196H8.23606V14.1108H9.76383V6.47196ZM6.70828 1.88862C6.31183 1.88685 5.93022 2.03925 5.64406 2.31363C5.35791 2.58802 5.18961 2.96289 5.17474 3.35906C5.15986 3.75523 5.29957 4.14167 5.56435 4.43674C5.82912 4.73181 6.19823 4.9124 6.5937 4.94036L6.70828 4.94418H8.23606V3.4164C8.23607 3.05131 8.10534 2.69828 7.86755 2.42125C7.62975 2.14422 7.30061 1.9615 6.93974 1.90619L6.8221 1.89244L6.70828 1.88862ZM11.2916 1.88862C10.9062 1.8885 10.5349 2.03407 10.2523 2.29615C9.96968 2.55824 9.79656 2.91746 9.76765 3.30182L9.76383 3.4164V4.94418H11.2916C11.6771 4.9443 12.0483 4.79873 12.3309 4.53665C12.6135 4.27456 12.7867 3.91534 12.8156 3.53098L12.8194 3.4164C12.8194 3.01121 12.6584 2.62261 12.3719 2.3361C12.0854 2.04958 11.6968 1.88862 11.2916 1.88862Z" fill="#1355FF"/>
</svg>
